<svg xmlns="http://www.w3.org/2000/svg" viewBox="0 0 900 420" font-family="Helvetica Neue, Arial, sans-serif">
<rect width="900" height="420" fill="#ffffff"/>
<text x="20" y="38" font-size="17" fill="#1a1a1a" text-anchor="start" font-weight="700" >a</text>
<line x1="80" y1="50" x2="80" y2="330" stroke="#6b757e" stroke-width="0.9" opacity="1"/>
<line x1="80" y1="330" x2="470" y2="330" stroke="#6b757e" stroke-width="0.9" opacity="1"/>
<line x1="80" y1="330" x2="80" y2="334" stroke="#6b757e" stroke-width="0.9" opacity="1"/>
<text x="80" y="348" font-size="11.5" fill="#6b757e" text-anchor="middle" font-weight="normal" >0.6</text>
<line x1="177.5" y1="330" x2="177.5" y2="334" stroke="#6b757e" stroke-width="0.9" opacity="1"/>
<text x="177.5" y="348" font-size="11.5" fill="#6b757e" text-anchor="middle" font-weight="normal" >0.7</text>
<line x1="275" y1="330" x2="275" y2="334" stroke="#6b757e" stroke-width="0.9" opacity="1"/>
<text x="275" y="348" font-size="11.5" fill="#6b757e" text-anchor="middle" font-weight="normal" >0.8</text>
<line x1="372.5" y1="330" x2="372.5" y2="334" stroke="#6b757e" stroke-width="0.9" opacity="1"/>
<text x="372.5" y="348" font-size="11.5" fill="#6b757e" text-anchor="middle" font-weight="normal" >0.9</text>
<line x1="470" y1="330" x2="470" y2="334" stroke="#6b757e" stroke-width="0.9" opacity="1"/>
<text x="470" y="348" font-size="11.5" fill="#6b757e" text-anchor="middle" font-weight="normal" >1</text>
<line x1="76" y1="91.78" x2="80" y2="91.78" stroke="#6b757e" stroke-width="0.9" opacity="1"/>
<text x="72" y="95.78" font-size="11.5" fill="#6b757e" text-anchor="end" font-weight="normal" >0</text>
<line x1="76" y1="163.98" x2="80" y2="163.98" stroke="#6b757e" stroke-width="0.9" opacity="1"/>
<text x="72" y="167.98" font-size="11.5" fill="#6b757e" text-anchor="end" font-weight="normal" >-0.5</text>
<line x1="76" y1="236.18" x2="80" y2="236.18" stroke="#6b757e" stroke-width="0.9" opacity="1"/>
<text x="72" y="240.18" font-size="11.5" fill="#6b757e" text-anchor="end" font-weight="normal" >-1</text>
<line x1="76" y1="308.38" x2="80" y2="308.38" stroke="#6b757e" stroke-width="0.9" opacity="1"/>
<text x="72" y="312.38" font-size="11.5" fill="#6b757e" text-anchor="end" font-weight="normal" >-1.5</text>
<line x1="80" y1="148.1" x2="470" y2="148.1" stroke="#6b757e" stroke-width="0.8" stroke-dasharray="4 3" opacity="0.7"/>
<text x="470" y="143.1" font-size="10.5" fill="#6b757e" text-anchor="end" font-weight="normal" >depleted</text>
<circle cx="153.03" cy="111.82" r="4.2" fill="#9aa3ab" opacity="0.8"/>
<circle cx="284.26" cy="64.44" r="4.2" fill="#9aa3ab" opacity="0.8"/>
<circle cx="258.81" cy="126.14" r="4.2" fill="#9aa3ab" opacity="0.8"/>
<circle cx="224.5" cy="70.39" r="4.2" fill="#9aa3ab" opacity="0.8"/>
<circle cx="432.95" cy="101.49" r="4.2" fill="#9aa3ab" opacity="0.8"/>
<circle cx="401.85" cy="128.53" r="4.2" fill="#9aa3ab" opacity="0.8"/>
<circle cx="371.43" cy="263.68" r="4.2" fill="#0d7d7d" opacity="0.8"/>
<circle cx="190.27" cy="233.03" r="4.2" fill="#0d7d7d" opacity="0.8"/>
<circle cx="144.55" cy="239.77" r="4.2" fill="#0d7d7d" opacity="0.8"/>
<circle cx="208.02" cy="197.09" r="4.2" fill="#0d7d7d" opacity="0.8"/>
<circle cx="314.78" cy="148.87" r="4.2" fill="#0d7d7d" opacity="0.8"/>
<circle cx="292.94" cy="123.91" r="4.2" fill="#9aa3ab" opacity="0.8"/>
<circle cx="297.42" cy="99.58" r="4.2" fill="#9aa3ab" opacity="0.8"/>
<circle cx="456.54" cy="137.24" r="4.2" fill="#9aa3ab" opacity="0.8"/>
<circle cx="336.13" cy="104.12" r="4.2" fill="#9aa3ab" opacity="0.8"/>
<circle cx="308.93" cy="103.25" r="4.2" fill="#9aa3ab" opacity="0.8"/>
<circle cx="279.49" cy="104.53" r="4.2" fill="#9aa3ab" opacity="0.8"/>
<circle cx="287.77" cy="106.42" r="4.2" fill="#9aa3ab" opacity="0.8"/>
<circle cx="281.24" cy="87.59" r="4.2" fill="#9aa3ab" opacity="0.8"/>
<circle cx="272.27" cy="103.5" r="4.2" fill="#9aa3ab" opacity="0.8"/>
<circle cx="192.71" cy="90.99" r="4.2" fill="#9aa3ab" opacity="0.8"/>
<circle cx="192.12" cy="99.26" r="4.2" fill="#9aa3ab" opacity="0.8"/>
<circle cx="201.97" cy="101.64" r="4.2" fill="#9aa3ab" opacity="0.8"/>
<circle cx="203.63" cy="104.7" r="4.2" fill="#9aa3ab" opacity="0.8"/>
<circle cx="201" cy="99" r="4.2" fill="#9aa3ab" opacity="0.8"/>
<circle cx="265.54" cy="116.05" r="4.2" fill="#9aa3ab" opacity="0.8"/>
<circle cx="291.09" cy="171.04" r="4.2" fill="#0d7d7d" opacity="0.8"/>
<circle cx="256.08" cy="134.22" r="4.2" fill="#9aa3ab" opacity="0.8"/>
<circle cx="242.34" cy="97.94" r="4.2" fill="#9aa3ab" opacity="0.8"/>
<circle cx="193.39" cy="128.34" r="4.2" fill="#9aa3ab" opacity="0.8"/>
<circle cx="313.32" cy="185.34" r="4.2" fill="#0d7d7d" opacity="0.8"/>
<circle cx="300.06" cy="271.74" r="4.2" fill="#0d7d7d" opacity="0.8"/>
<circle cx="306.3" cy="127.52" r="4.2" fill="#9aa3ab" opacity="0.8"/>
<circle cx="279.19" cy="104.48" r="4.2" fill="#9aa3ab" opacity="0.8"/>
<circle cx="286.31" cy="127.84" r="4.2" fill="#9aa3ab" opacity="0.8"/>
<circle cx="322.87" cy="98.03" r="4.2" fill="#9aa3ab" opacity="0.8"/>
<circle cx="261.64" cy="84.21" r="4.2" fill="#9aa3ab" opacity="0.8"/>
<circle cx="289.53" cy="85.52" r="4.2" fill="#9aa3ab" opacity="0.8"/>
<circle cx="250.72" cy="96.25" r="4.2" fill="#9aa3ab" opacity="0.8"/>
<circle cx="246.24" cy="102.23" r="4.2" fill="#9aa3ab" opacity="0.8"/>
<circle cx="272.37" cy="112.6" r="4.2" fill="#9aa3ab" opacity="0.8"/>
<circle cx="284.07" cy="122.98" r="4.2" fill="#9aa3ab" opacity="0.8"/>
<circle cx="287.19" cy="129.38" r="4.2" fill="#9aa3ab" opacity="0.8"/>
<circle cx="344.03" cy="266.58" r="4.2" fill="#0d7d7d" opacity="0.8"/>
<circle cx="351.54" cy="201.61" r="4.2" fill="#0d7d7d" opacity="0.8"/>
<circle cx="312.93" cy="188.42" r="4.2" fill="#0d7d7d" opacity="0.8"/>
<circle cx="232.2" cy="82.89" r="4.2" fill="#9aa3ab" opacity="0.8"/>
<circle cx="233.86" cy="112.53" r="4.2" fill="#9aa3ab" opacity="0.8"/>
<circle cx="231.32" cy="99.14" r="4.2" fill="#9aa3ab" opacity="0.8"/>
<circle cx="272.86" cy="119.93" r="4.2" fill="#9aa3ab" opacity="0.8"/>
<circle cx="251.7" cy="80.76" r="4.2" fill="#9aa3ab" opacity="0.8"/>
<circle cx="210.16" cy="96.46" r="4.2" fill="#9aa3ab" opacity="0.8"/>
<circle cx="263.69" cy="92.74" r="4.2" fill="#9aa3ab" opacity="0.8"/>
<circle cx="286.6" cy="104.1" r="4.2" fill="#9aa3ab" opacity="0.8"/>
<circle cx="231.71" cy="92.07" r="4.2" fill="#9aa3ab" opacity="0.8"/>
<circle cx="320.24" cy="126.85" r="4.2" fill="#9aa3ab" opacity="0.8"/>
<circle cx="393.66" cy="86.37" r="4.2" fill="#9aa3ab" opacity="0.8"/>
<circle cx="347.25" cy="115.49" r="4.2" fill="#9aa3ab" opacity="0.8"/>
<circle cx="340.13" cy="116.46" r="4.2" fill="#9aa3ab" opacity="0.8"/>
<circle cx="395.7" cy="105.56" r="4.2" fill="#9aa3ab" opacity="0.8"/>
<circle cx="388.98" cy="67.92" r="4.2" fill="#9aa3ab" opacity="0.8"/>
<circle cx="289.92" cy="206.83" r="4.2" fill="#0d7d7d" opacity="0.8"/>
<circle cx="302.88" cy="219.04" r="4.2" fill="#0d7d7d" opacity="0.8"/>
<circle cx="280.65" cy="261.49" r="4.2" fill="#0d7d7d" opacity="0.8"/>
<circle cx="345.3" cy="143.01" r="4.2" fill="#9aa3ab" opacity="0.8"/>
<circle cx="394.05" cy="209.62" r="4.2" fill="#0d7d7d" opacity="0.8"/>
<circle cx="379.42" cy="304.43" r="4.2" fill="#0d7d7d" opacity="0.8"/>
<circle cx="299.28" cy="229.32" r="4.2" fill="#0d7d7d" opacity="0.8"/>
<circle cx="338.76" cy="315.56" r="4.2" fill="#0d7d7d" opacity="0.8"/>
<circle cx="258.81" cy="222.94" r="4.2" fill="#0d7d7d" opacity="0.8"/>
<circle cx="297.23" cy="98.49" r="4.2" fill="#9aa3ab" opacity="0.8"/>
<circle cx="298.3" cy="79.74" r="4.2" fill="#9aa3ab" opacity="0.8"/>
<circle cx="286.8" cy="85.87" r="4.2" fill="#9aa3ab" opacity="0.8"/>
<circle cx="314.29" cy="79.74" r="4.2" fill="#9aa3ab" opacity="0.8"/>
<circle cx="297.33" cy="206.09" r="4.2" fill="#0d7d7d" opacity="0.8"/>
<circle cx="323.75" cy="136.78" r="4.2" fill="#9aa3ab" opacity="0.8"/>
<circle cx="287.67" cy="155.38" r="4.2" fill="#0d7d7d" opacity="0.8"/>
<circle cx="327.26" cy="174.89" r="4.2" fill="#0d7d7d" opacity="0.8"/>
<circle cx="327.94" cy="108.6" r="4.2" fill="#9aa3ab" opacity="0.8"/>
<circle cx="305.32" cy="111.15" r="4.2" fill="#9aa3ab" opacity="0.8"/>
<circle cx="266.23" cy="102.03" r="4.2" fill="#9aa3ab" opacity="0.8"/>
<circle cx="296.55" cy="99.55" r="4.2" fill="#9aa3ab" opacity="0.8"/>
<circle cx="273.34" cy="97.98" r="4.2" fill="#9aa3ab" opacity="0.8"/>
<circle cx="266.23" cy="97.51" r="4.2" fill="#9aa3ab" opacity="0.8"/>
<circle cx="256.87" cy="111.54" r="4.2" fill="#9aa3ab" opacity="0.8"/>
<circle cx="251.99" cy="115.05" r="4.2" fill="#9aa3ab" opacity="0.8"/>
<circle cx="246.14" cy="104.24" r="4.2" fill="#9aa3ab" opacity="0.8"/>
<circle cx="277.93" cy="111.1" r="4.2" fill="#9aa3ab" opacity="0.8"/>
<circle cx="270.42" cy="97.88" r="4.2" fill="#9aa3ab" opacity="0.8"/>
<circle cx="343.84" cy="78.11" r="4.2" fill="#9aa3ab" opacity="0.8"/>
<circle cx="323.94" cy="109.99" r="4.2" fill="#9aa3ab" opacity="0.8"/>
<circle cx="262.23" cy="90.18" r="4.2" fill="#9aa3ab" opacity="0.8"/>
<circle cx="317.32" cy="90.05" r="4.2" fill="#9aa3ab" opacity="0.8"/>
<circle cx="298.99" cy="103.42" r="4.2" fill="#9aa3ab" opacity="0.8"/>
<circle cx="228.88" cy="100.69" r="4.2" fill="#9aa3ab" opacity="0.8"/>
<circle cx="236.49" cy="104.36" r="4.2" fill="#9aa3ab" opacity="0.8"/>
<circle cx="248.09" cy="101.65" r="4.2" fill="#9aa3ab" opacity="0.8"/>
<circle cx="293.52" cy="117.38" r="4.2" fill="#9aa3ab" opacity="0.8"/>
<circle cx="326.38" cy="89.48" r="4.2" fill="#9aa3ab" opacity="0.8"/>
<circle cx="298.21" cy="84.51" r="4.2" fill="#9aa3ab" opacity="0.8"/>
<circle cx="270.61" cy="95.27" r="4.2" fill="#9aa3ab" opacity="0.8"/>
<circle cx="199.73" cy="107.39" r="4.2" fill="#9aa3ab" opacity="0.8"/>
<circle cx="224.98" cy="114.01" r="4.2" fill="#9aa3ab" opacity="0.8"/>
<circle cx="228.01" cy="90.53" r="4.2" fill="#9aa3ab" opacity="0.8"/>
<circle cx="296.16" cy="90.17" r="4.2" fill="#9aa3ab" opacity="0.8"/>
<circle cx="264.37" cy="101.29" r="4.2" fill="#9aa3ab" opacity="0.8"/>
<circle cx="255.11" cy="102.03" r="4.2" fill="#9aa3ab" opacity="0.8"/>
<circle cx="263.4" cy="104.1" r="4.2" fill="#9aa3ab" opacity="0.8"/>
<circle cx="240.97" cy="78.29" r="4.2" fill="#9aa3ab" opacity="0.8"/>
<circle cx="248.28" cy="106.32" r="4.2" fill="#9aa3ab" opacity="0.8"/>
<circle cx="322.68" cy="87.07" r="4.2" fill="#9aa3ab" opacity="0.8"/>
<circle cx="263.4" cy="89" r="4.2" fill="#9aa3ab" opacity="0.8"/>
<circle cx="232.59" cy="88.6" r="4.2" fill="#9aa3ab" opacity="0.8"/>
<circle cx="281.43" cy="100.05" r="4.2" fill="#9aa3ab" opacity="0.8"/>
<circle cx="369.87" cy="131.94" r="4.2" fill="#9aa3ab" opacity="0.8"/>
<circle cx="366.16" cy="121.63" r="4.2" fill="#9aa3ab" opacity="0.8"/>
<circle cx="311.56" cy="85.52" r="4.2" fill="#9aa3ab" opacity="0.8"/>
<circle cx="277.34" cy="167.4" r="4.2" fill="#0d7d7d" opacity="0.8"/>
<circle cx="256.08" cy="185.23" r="4.2" fill="#0d7d7d" opacity="0.8"/>
<circle cx="289.92" cy="236.71" r="4.2" fill="#0d7d7d" opacity="0.8"/>
<circle cx="398.14" cy="203.02" r="4.2" fill="#0d7d7d" opacity="0.8"/>
<circle cx="470" cy="249.36" r="4.2" fill="#0d7d7d" opacity="0.8"/>
<circle cx="418.32" cy="162.66" r="4.2" fill="#0d7d7d" opacity="0.8"/>
<circle cx="407.11" cy="242.6" r="4.2" fill="#0d7d7d" opacity="0.8"/>
<circle cx="418.42" cy="135.28" r="4.2" fill="#9aa3ab" opacity="0.8"/>
<circle cx="314.88" cy="76.76" r="4.2" fill="#9aa3ab" opacity="0.8"/>
<circle cx="298.01" cy="105.95" r="4.2" fill="#9aa3ab" opacity="0.8"/>
<circle cx="316.24" cy="100.33" r="4.2" fill="#9aa3ab" opacity="0.8"/>
<circle cx="298.21" cy="154.1" r="4.2" fill="#0d7d7d" opacity="0.8"/>
<circle cx="289.33" cy="108.23" r="4.2" fill="#9aa3ab" opacity="0.8"/>
<circle cx="359.82" cy="148.16" r="4.2" fill="#0d7d7d" opacity="0.8"/>
<circle cx="317.02" cy="106.16" r="4.2" fill="#9aa3ab" opacity="0.8"/>
<circle cx="315.37" cy="92.51" r="4.2" fill="#9aa3ab" opacity="0.8"/>
<circle cx="255.7" cy="103.75" r="4.2" fill="#9aa3ab" opacity="0.8"/>
<circle cx="234.34" cy="108.18" r="4.2" fill="#9aa3ab" opacity="0.8"/>
<circle cx="189.88" cy="110.18" r="4.2" fill="#9aa3ab" opacity="0.8"/>
<circle cx="222.64" cy="90.88" r="4.2" fill="#9aa3ab" opacity="0.8"/>
<circle cx="278.32" cy="84.76" r="4.2" fill="#9aa3ab" opacity="0.8"/>
<circle cx="232.2" cy="128.84" r="4.2" fill="#9aa3ab" opacity="0.8"/>
<circle cx="359.14" cy="165.45" r="4.2" fill="#0d7d7d" opacity="0.8"/>
<circle cx="157.61" cy="112.39" r="4.2" fill="#9aa3ab" opacity="0.8"/>
<text x="275" y="368" font-size="13.5" fill="#1a1a1a" text-anchor="middle" font-weight="normal" >ERNIE-RNA criticality</text>
<text x="34" y="190" font-size="13.5" fill="#1a1a1a" text-anchor="middle" font-weight="normal" transform="rotate(-90 34 190.0)" >SGE function score</text>
<text x="94" y="72" font-size="13" fill="#1a1a1a" text-anchor="start" font-weight="normal" >ρ = -0.26,  p = 0.002</text>
<text x="94" y="90" font-size="13" fill="#1a1a1a" text-anchor="start" font-weight="normal" >AUC = 0.71,  n = 141</text>
<text x="540" y="38" font-size="17" fill="#1a1a1a" text-anchor="start" font-weight="700" >b</text>
<line x1="596" y1="70" x2="596" y2="290" stroke="#6b757e" stroke-width="0.9" opacity="1"/>
<line x1="592" y1="70" x2="596" y2="70" stroke="#6b757e" stroke-width="0.9" opacity="1"/>
<text x="588" y="74" font-size="11" fill="#6b757e" text-anchor="end" font-weight="normal" >+0.2</text>
<line x1="592" y1="114" x2="596" y2="114" stroke="#6b757e" stroke-width="0.9" opacity="1"/>
<text x="588" y="118" font-size="11" fill="#6b757e" text-anchor="end" font-weight="normal" >+0.1</text>
<line x1="592" y1="158" x2="596" y2="158" stroke="#6b757e" stroke-width="0.9" opacity="1"/>
<text x="588" y="162" font-size="11" fill="#6b757e" text-anchor="end" font-weight="normal" >0</text>
<line x1="592" y1="202" x2="596" y2="202" stroke="#6b757e" stroke-width="0.9" opacity="1"/>
<text x="588" y="206" font-size="11" fill="#6b757e" text-anchor="end" font-weight="normal" >-0.1</text>
<line x1="592" y1="246" x2="596" y2="246" stroke="#6b757e" stroke-width="0.9" opacity="1"/>
<text x="588" y="250" font-size="11" fill="#6b757e" text-anchor="end" font-weight="normal" >-0.2</text>
<line x1="592" y1="290" x2="596" y2="290" stroke="#6b757e" stroke-width="0.9" opacity="1"/>
<text x="588" y="294" font-size="11" fill="#6b757e" text-anchor="end" font-weight="normal" >-0.3</text>
<line x1="596" y1="158" x2="860" y2="158" stroke="#6b757e" stroke-width="0.9" opacity="1"/>
<text x="552" y="180" font-size="12.5" fill="#1a1a1a" text-anchor="middle" font-weight="normal" transform="rotate(-90 552 180.0)" >Spearman ρ vs SGE map</text>
<rect x="620.33" y="158" width="46" height="115.28" fill="#0d7d7d"/>
<text x="643.33" y="291.28" font-size="13.5" fill="#0d7d7d" text-anchor="middle" font-weight="700" >-0.26</text>
<text x="643.33" y="312" font-size="12" fill="#0d7d7d" text-anchor="middle" font-weight="700" >ERNIE-RNA</text>
<rect x="707" y="108.28" width="46" height="49.72" fill="#9aa3ab"/>
<text x="730" y="100.28" font-size="13.5" fill="#1a1a1a" text-anchor="middle" font-weight="700" >+0.11</text>
<text x="730" y="312" font-size="12" fill="#1a1a1a" text-anchor="middle" font-weight="700" >RNA-FM</text>
<rect x="793.67" y="158" width="46" height="46.2" fill="#5b6b7a"/>
<text x="816.67" y="222.2" font-size="13.5" fill="#5b6b7a" text-anchor="middle" font-weight="700" >-0.11</text>
<text x="816.67" y="312" font-size="12" fill="#5b6b7a" text-anchor="middle" font-weight="700" >CADD</text>
<text x="730" y="334" font-size="11.5" fill="#6b757e" text-anchor="middle" font-weight="normal" >negative ρ = criticality tracks depletion</text>
</svg>